<svg xmlns="http://www.w3.org/2000/svg" xmlns:xlink="http://www.w3.org/1999/xlink" width="500" zoomAndPan="magnify" viewBox="0 0 375 374.999991" height="500" preserveAspectRatio="xMidYMid meet" version="1.0"><defs><clipPath id="ced73b69c2"><path d="M 12.421875 0 L 362.671875 0 L 362.671875 375 L 12.421875 375 Z M 12.421875 0 " clip-rule="nonzero"/></clipPath><clipPath id="b01b5d6aad"><path d="M 112.5 81.207031 L 262.5 81.207031 L 262.5 219.207031 L 112.5 219.207031 Z M 112.5 81.207031 " clip-rule="nonzero"/></clipPath></defs><rect x="-37.5" width="450" y="-37.499999" height="449.999989" /><rect x="-37.5" width="450" y="-37.499999" height="449.999989"/><g clip-path="url(#ced73b69c2)"><path fill="#00a4ff" d="M 141.234375 311.007812 L 160.070312 311.007812 L 160.070312 280.742188 L 150.714844 280.714844 C 144.683594 280.714844 137.902344 278.058594 133.027344 274.460938 C 127.894531 270.679688 123.886719 265.410156 122.164062 259.566406 L 118.355469 246.601562 L 79.972656 246.601562 L 30.335938 270.128906 C 22.128906 274 12.671875 267.996094 12.671875 258.953125 L 12.671875 5.691406 L 12.695312 5.691406 C 12.722656 2.503906 15.21875 0.0546875 18.332031 0.0546875 L 18.332031 0.03125 L 356.699219 0.03125 C 359.835938 0.03125 362.355469 2.554688 362.355469 5.691406 L 362.355469 258.953125 C 362.355469 268.003906 352.890625 274 344.691406 270.128906 L 295.082031 246.601562 L 256.671875 246.601562 L 252.867188 259.566406 C 249.40625 271.429688 236.59375 280.554688 224.3125 280.707031 L 223.828125 280.707031 L 223.828125 280.734375 L 214.960938 280.734375 L 214.960938 311 L 233.820312 311 C 241.226562 311 247.847656 314.847656 251.304688 321.425781 L 270.003906 356.976562 C 274.363281 365.292969 268.128906 375.03125 258.75 375.03125 L 116.277344 375.03125 C 106.910156 375.03125 100.675781 365.269531 105.023438 356.976562 L 123.722656 321.425781 C 127.183594 314.855469 133.804688 311.007812 141.234375 311.007812 Z M 171.386719 311.007812 L 203.648438 311.007812 L 203.648438 280.742188 L 171.386719 280.742188 Z M 233.828125 322.320312 L 141.234375 322.320312 C 137.976562 322.320312 135.226562 323.832031 133.714844 326.679688 L 115.015625 362.230469 C 114.628906 362.992188 115.292969 363.71875 116.277344 363.71875 L 258.765625 363.71875 C 259.753906 363.71875 260.417969 362.980469 260.027344 362.230469 L 241.332031 326.679688 C 239.808594 323.832031 237.085938 322.320312 233.828125 322.320312 Z M 130.117188 246.609375 L 133.003906 256.4375 C 135.039062 263.445312 143.660156 269.425781 150.714844 269.425781 L 224.328125 269.425781 C 231.6875 269.214844 240.003906 263.445312 242.066406 256.4375 L 244.925781 246.609375 C 206.65625 246.609375 168.386719 246.609375 130.117188 246.609375 Z M 24 18.039062 L 24 258.953125 C 24 259.800781 24.796875 260.261719 25.535156 259.914062 L 72.738281 237.535156 L 72.738281 60.265625 Z M 351.0625 258.953125 L 351.0625 18.039062 L 302.300781 60.257812 L 302.300781 237.527344 L 349.503906 259.90625 C 350.238281 260.261719 351.0625 259.800781 351.0625 258.953125 Z M 78.394531 11.355469 L 33.480469 11.355469 L 80.480469 52.039062 L 294.554688 52.039062 L 341.554688 11.355469 Z M 290.980469 63.355469 L 84.054688 63.355469 L 84.054688 235.289062 L 290.980469 235.289062 Z M 290.980469 63.355469 " fill-opacity="1" fill-rule="nonzero"/></g><g clip-path="url(#b01b5d6aad)"><path fill="#573bff" d="M 112.742188 104.21875 L 112.742188 196.347656 C 112.742188 208.996094 123.03125 219.285156 135.679688 219.285156 L 239.304688 219.285156 C 251.953125 219.285156 262.242188 208.996094 262.242188 196.347656 L 262.242188 121.53125 C 262.242188 118.347656 259.667969 115.777344 256.484375 115.777344 L 256.484375 109.40625 C 256.484375 100.226562 249.023438 92.765625 239.84375 92.765625 L 185.199219 92.765625 C 181.101562 85.664062 173.65625 81.269531 165.371094 81.269531 L 135.679688 81.269531 C 123.03125 81.285156 112.742188 91.570312 112.742188 104.21875 Z M 239.859375 104.277344 C 242.683594 104.277344 245.003906 106.582031 245.003906 109.421875 L 245.003906 115.792969 L 203.871094 115.792969 C 199.503906 115.792969 195.589844 113.367188 193.644531 109.464844 L 191.058594 104.292969 L 239.859375 104.292969 Z M 124.242188 104.21875 C 124.242188 97.910156 129.371094 92.78125 135.679688 92.78125 L 165.371094 92.78125 C 169.738281 92.78125 173.65625 95.203125 175.597656 99.105469 L 183.34375 114.609375 C 187.261719 122.429688 195.109375 127.289062 203.855469 127.289062 L 250.742188 127.289062 L 250.742188 196.363281 C 250.742188 202.671875 245.617188 207.800781 239.304688 207.800781 L 135.679688 207.800781 C 129.371094 207.800781 124.242188 202.671875 124.242188 196.363281 Z M 124.242188 104.21875 " fill-rule="nonzero"/></g></svg>